HIERARCHY
ROOT Hips
{
  OFFSET 1.44925e-005 102.336 -0.101585
  CHANNELS 6 Xposition Yposition Zposition Zrotation Xrotation Yrotation
  JOINT LeftUpLeg
  {
    OFFSET 8.9458 -8.66707 0.101652
    CHANNELS 3 Zrotation Xrotation Yrotation
    JOINT LeftLeg
    {
      OFFSET 0 -44.4227 1.3727
      CHANNELS 3 Zrotation Xrotation Yrotation
      JOINT LeftFoot
      {
        OFFSET -0.253549 -42.0924 -1.46059
        CHANNELS 3 Zrotation Xrotation Yrotation
        JOINT LeftToes
        {
          OFFSET -0.04 -4.41509 8.4991
          CHANNELS 3 Zrotation Xrotation Yrotation
          End Site
          {
            OFFSET 0.08 -0.047448 9.77979
          }
        }
      }
    }
  }
  JOINT Spine
  {
    OFFSET 0 11.8905 0
    CHANNELS 3 Zrotation Xrotation Yrotation
    JOINT Spine1
    {
      OFFSET 0 25.6574 0.127663
      CHANNELS 3 Zrotation Xrotation Yrotation
      JOINT RightShoulder
      {
        OFFSET -8.99 -0.362252 -0.22
        CHANNELS 3 Zrotation Xrotation Yrotation
        JOINT RightArm
        {
          OFFSET -10.2827 -0.00338 0.322123
          CHANNELS 3 Zrotation Xrotation Yrotation
          JOINT RightForeArm
          {
            OFFSET -26.364 0.099144 -1.42434
            CHANNELS 3 Zrotation Xrotation Yrotation
            JOINT RightHand
            {
              OFFSET -22.0324 0.085362 1.02216
              CHANNELS 3 Zrotation Xrotation Yrotation
              End Site
              {
                OFFSET -13.3284 -0.6 1.50291
              }
            }
          }
        }
      }
      JOINT LeftShoulder1
      {
        OFFSET 8.99 -0.362252 -0.22
        CHANNELS 3 Zrotation Xrotation Yrotation
        JOINT LeftArm
        {
          OFFSET 10.2827 -0.00337999 0.322123
          CHANNELS 3 Zrotation Xrotation Yrotation
          JOINT LeftForeArm
          {
            OFFSET 26.2597 0.099144 -1.42434
            CHANNELS 3 Zrotation Xrotation Yrotation
            JOINT LeftHand
            {
              OFFSET 22.0902 0.085362 1.02216
              CHANNELS 3 Zrotation Xrotation Yrotation
              End Site
              {
                OFFSET 13.419 -0.6 1.50291
              }
            }
          }
        }
      }
      JOINT Head
      {
        OFFSET 0 8.73416 0.011341
        CHANNELS 3 Zrotation Xrotation Yrotation
        End Site
        {
          OFFSET -0.29 12.7742 2.51395
        }
      }
    }
  }
  JOINT RightUpLeg
  {
    OFFSET -8.9458 -8.66707 0.101652
    CHANNELS 3 Zrotation Xrotation Yrotation
    JOINT RightLeg
    {
      OFFSET 0 -44.4227 1.3727
      CHANNELS 3 Zrotation Xrotation Yrotation
      JOINT RightFoot
      {
        OFFSET 0.253549 -42.0924 -1.46059
        CHANNELS 3 Zrotation Xrotation Yrotation
        JOINT RightToes
        {
          OFFSET 0.04 -4.41509 8.4991
          CHANNELS 3 Zrotation Xrotation Yrotation
          End Site
          {
            OFFSET -0.08 -0.137448 9.77979
          }
        }
      }
    }
  }
}
MOTION
Frames:	19
Frame Time:	0.0333333
104.405 100.123 -1.37618 -7.18949 -4.26534 -84.6631 -2.75344 9.75747 5.34109 -0.276284 16.5258 29.5338 -12.24 -22.0577 -1.47184 -1.33455e-009 8.75224e-006 -1.47026e-008 1.01722 13.503 -1.08611 -4.10653 1.78348 -0.220668 27.5948 1.5595 0.47695 55.4164 -30.5967 60.0252 -32.0879 16.0845 105.801 -22.0259 9.00306 -0.578592 -45.394 3.47949 -3.16722 -20.7425 -15.0944 -0.876068 -0.307074 29.8438 -20.7518 5.82328 9.61819 -0.917488 -2.37243 -5.74073 -15.8997 -5.4784 -12.8155 -5.31959 0.237285 13.2479 -4.34719 4.72466 1.32339 -0.483548 0.0462048 0.00053089 0.662642 
104.377 100.152 -1.46527 -7.23091 -4.23869 -84.1472 -2.56431 9.79624 5.29627 -0.160692 16.5022 29.0253 -12.2755 -22.0097 -1.47128 -1.33455e-009 8.75224e-006 -1.47026e-008 0.803707 13.4359 -1.10716 -4.01269 1.90788 -0.274428 28.3131 1.58751 0.477423 54.6929 -31.1919 58.8404 -29.6783 14.8982 108.306 -23.1263 8.92311 -0.410977 -45.3362 3.48638 -3.18884 -20.6356 -14.7366 -0.543957 0.245807 28.9089 -21.8919 5.82328 9.61819 -0.917488 -1.98591 -5.11906 -16.3173 -5.46341 -12.6067 -5.30478 0.289045 13.1436 -4.82401 4.68795 1.32026 -0.480555 0.0462048 0.00053089 0.662642 
104.341 100.155 -1.53393 -7.39284 -4.17343 -83.9209 -2.38334 9.95127 5.35957 -0.0817579 16.5396 28.6886 -12.2898 -22.0124 -1.47373 -1.33455e-009 8.75224e-006 -1.47026e-008 0.615252 13.3971 -1.01673 -3.89093 2.07988 -0.215807 29.594 1.62956 0.455307 53.171 -31.3987 56.8555 -28.4872 13.7838 110.563 -24.3858 8.73636 0.224281 -45.1808 3.47955 -3.20064 -20.8258 -14.9142 -0.32526 0.39151 28.5807 -22.2692 5.82328 9.61819 -0.917488 -1.82917 -4.03898 -16.457 -5.35347 -12.3778 -5.27059 0.303168 13.1392 -5.02138 4.54632 1.32112 -0.469472 0.0462048 0.00053089 0.662642 
104.306 100.137 -1.56646 -7.61572 -4.12913 -83.9957 -2.3036 10.1855 5.45798 -0.0544227 16.5891 28.6244 -12.2918 -22.028 -1.47679 -1.33455e-009 8.75224e-006 -1.47026e-008 0.363642 13.3319 -0.84843 -3.66392 2.29036 -0.105364 30.6285 1.65898 0.425233 51.8052 -30.9426 54.3526 -28.6226 12.7398 112.167 -26.0851 8.42372 1.24907 -45.0882 3.47825 -3.2083 -21.1083 -15.3878 -0.194272 0.156797 28.7959 -21.8047 5.82328 9.61819 -0.917488 -2.00338 -2.43492 -16.1383 -5.22162 -12.1804 -5.20296 0.280008 13.2146 -4.98292 4.35608 1.30263 -0.453958 0.0462048 0.00053089 0.662642 
104.273 100.12 -1.55502 -7.81206 -4.06825 -84.1934 -2.27211 10.3937 5.54558 -0.046241 16.6463 28.7064 -12.3076 -22.0517 -1.47842 -1.33455e-009 8.75224e-006 -1.47026e-008 0.162809 13.1547 -0.730082 -3.44033 2.5625 -0.0410672 31.0095 1.67349 0.424381 51.0873 -29.9462 51.2362 -28.9555 12.2659 112.741 -28.4379 8.03432 2.26856 -45.1364 3.49286 -3.22966 -21.2384 -16.0872 -0.0107974 -0.30654 29.59 -20.8011 5.82328 9.61819 -0.917488 -2.31 -0.587082 -15.3648 -5.08251 -12.0252 -5.11531 0.241845 13.2727 -4.89235 4.26864 1.29001 -0.446722 0.0462048 0.00053089 0.662642 
104.239 100.116 -1.5087 -7.94346 -3.96297 -84.3057 -2.212 10.528 5.60237 -0.0180838 16.7027 28.7516 -12.3233 -22.1008 -1.4787 -1.33455e-009 8.75224e-006 -1.47026e-008 0.111549 12.928 -0.738622 -3.36886 2.79416 -0.0640274 31.0439 1.6848 0.451229 50.4515 -28.8432 47.1592 -28.5406 12.7716 112.166 -31.1193 7.63475 3.05317 -45.2235 3.51629 -3.26221 -21.221 -16.9774 0.278566 -0.930508 30.8942 -19.5157 5.82328 9.61819 -0.917488 -2.41937 1.00718 -14.3664 -4.95214 -11.8745 -5.03646 0.236285 13.236 -4.89764 4.27755 1.31278 -0.448117 0.0462048 0.00053089 0.662642 
104.204 100.122 -1.44208 -8.01133 -3.87372 -84.2526 -2.16007 10.6187 5.59357 0.0312448 16.701 28.7177 -12.2981 -22.1522 -1.47854 -1.33455e-009 8.75224e-006 -1.47026e-008 0.0944424 12.797 -0.843613 -3.42365 2.84786 -0.160949 31.2179 1.6994 0.472018 49.1762 -27.8745 41.9617 -27.0171 14.3475 110.3 -33.3835 7.29858 3.59891 -45.1695 3.5243 -3.28539 -21.2821 -18.1292 0.667351 -1.71487 32.4933 -18.0448 5.82328 9.61819 -0.917488 -2.16063 1.93573 -13.4883 -4.91117 -11.7324 -5.04279 0.281799 13.1585 -4.95618 4.28454 1.33871 -0.44945 0.0462048 0.00053089 0.662642 
104.169 100.132 -1.36126 -7.98888 -3.85106 -84.092 -2.16928 10.6463 5.52672 0.0634329 16.6324 28.6469 -12.2315 -22.1783 -1.47863 -1.33455e-009 8.75224e-006 -1.47026e-008 -0.06258 12.7397 -0.959108 -3.43418 2.78768 -0.292207 31.7411 1.71417 0.456403 47.2581 -26.9761 35.9833 -23.8261 17.0399 106.592 -34.2186 7.19307 3.71628 -44.9208 3.50884 -3.29163 -21.579 -19.6298 1.1035 -2.61594 34.2226 -16.4417 5.82328 9.61819 -0.917488 -1.67758 2.03097 -12.9431 -4.99433 -11.6855 -5.14446 0.342422 13.1389 -4.99368 4.2976 1.32075 -0.449942 0.0462048 0.00053089 0.662642 
104.128 100.139 -1.26126 -7.86364 -3.84309 -83.9479 -2.19586 10.565 5.48559 0.0456791 16.5762 28.5656 -12.174 -22.2184 -1.48057 -1.33455e-009 8.75224e-006 -1.47026e-008 -0.358282 12.6071 -1.01765 -3.27761 2.79951 -0.410298 32.5115 1.72633 0.408846 45.1042 -25.9089 29.8687 -18.0976 20.5177 100.02 -32.8353 7.50057 3.04406 -44.6676 3.49213 -3.29607 -21.9908 -21.3542 1.48487 -3.58448 36.1134 -14.718 5.82328 9.61819 -0.917488 -1.29416 1.37813 -12.6141 -5.10297 -11.7796 -5.23492 0.369369 13.1813 -5.02375 4.36268 1.27019 -0.452985 0.0462048 0.00053089 0.662642 
104.078 100.137 -1.13112 -7.73064 -3.78497 -83.9327 -2.20101 10.4635 5.5169 -0.00555156 16.5702 28.5385 -12.1401 -22.31 -1.48542 -1.33455e-009 8.75224e-006 -1.47026e-008 -0.654802 12.4266 -1.01062 -2.97143 2.87959 -0.491923 33.2718 1.74123 0.370659 42.9561 -24.2647 24.2718 -10.0052 23.3734 89.8203 -29.3028 8.15785 1.52512 -44.6927 3.50185 -3.31128 -22.2246 -22.9339 1.80987 -4.59604 38.1416 -12.9225 5.82328 9.61819 -0.917488 -1.18878 0.303327 -12.1993 -5.12893 -11.918 -5.22574 0.346395 13.2379 -5.03808 4.43388 1.23233 -0.456869 0.0462048 0.00053089 0.662642 
104.031 100.126 -0.966367 -7.71025 -3.70777 -84.0965 -2.25665 10.4907 5.55266 -0.0458938 16.5627 28.697 -12.0535 -22.3847 -1.48177 -1.33455e-009 8.75224e-006 -1.47026e-008 -0.855445 12.3994 -0.958889 -2.64161 2.84127 -0.528254 33.8496 1.76597 0.376002 40.9318 -21.7075 19.7738 -1.9668 23.9705 76.8211 -24.1028 8.90796 -0.570127 -45.0412 3.53849 -3.33135 -22.1534 -23.9547 2.22571 -5.52151 39.8993 -11.3358 5.82328 9.61819 -0.917488 -1.23342 -0.786387 -11.5385 -5.092 -11.9866 -5.14687 0.278657 13.3194 -4.93741 4.47313 1.21688 -0.460411 0.0462048 0.00053089 0.662642 
103.997 100.108 -0.778239 -7.7844 -3.66949 -84.4218 -2.43028 10.627 5.52159 -0.0687441 16.5268 29.1009 -11.8477 -22.3403 -1.44962 -1.33455e-009 8.75224e-006 -1.47026e-008 -0.913863 12.5431 -0.868819 -2.48067 2.6582 -0.481156 34.321 1.7976 0.408439 39.2197 -18.3265 16.7411 2.68421 22.7377 63.3896 -17.3077 9.53627 -2.95929 -45.4228 3.57382 -3.3437 -21.9965 -24.3794 2.74106 -6.18968 41.0326 -10.241 5.82328 9.61819 -0.917488 -1.21437 -1.71333 -10.7154 -5.06199 -12.009 -5.04747 0.169117 13.4464 -4.67352 4.53362 1.20155 -0.464544 0.0462048 0.00053089 0.662642 
103.966 100.087 -0.581704 -7.83601 -3.6506 -84.8323 -2.65546 10.7432 5.45544 -0.1129 16.4661 29.6318 -11.5879 -22.184 -1.39908 -1.33455e-009 8.75224e-006 -1.47026e-008 -0.761204 12.6143 -0.755856 -2.63653 2.54772 -0.325022 34.8595 1.82195 0.415669 37.9693 -14.3577 15.1663 2.96707 22.1341 50.8905 -9.69092 9.84848 -4.83861 -45.5222 3.5825 -3.34544 -22.0739 -24.6252 3.07874 -6.67689 41.775 -9.45648 5.82328 9.61819 -0.917488 -1.14587 -2.57634 -9.90232 -5.03481 -12.064 -4.91131 0.0326196 13.5581 -4.35471 4.63412 1.19567 -0.472135 0.0462048 0.00053089 0.662642 
103.919 100.079 -0.378721 -7.82667 -3.60209 -85.1924 -2.82026 10.8369 5.41579 -0.196894 16.3266 30.0838 -11.3926 -22.0128 -1.35628 -1.33455e-009 8.75224e-006 -1.47026e-008 -0.401948 12.4694 -0.667987 -3.00801 2.64829 -0.127609 35.4406 1.82943 0.376839 37.0354 -9.35618 14.7031 1.36782 23.0931 38.9298 -3.48594 9.88774 -5.31039 -45.3438 3.56727 -3.34058 -22.4422 -25.0347 3.02074 -7.1781 42.552 -8.62367 5.82328 9.61819 -0.917488 -1.22445 -3.43555 -9.23403 -4.98574 -12.1291 -4.74427 -0.0976303 13.5864 -4.13236 4.71019 1.24096 -0.479577 0.0462048 0.00053089 0.662642 
103.864 100.09 -0.167458 -7.81083 -3.54528 -85.3657 -2.91434 10.9804 5.40689 -0.294369 16.0821 30.3229 -11.2604 -21.8917 -1.32718 -1.33455e-009 8.75224e-006 -1.47026e-008 -0.0307697 12.2496 -0.626133 -3.24722 2.83435 -0.000771776 35.8505 1.82681 0.331292 36.2286 -3.47134 14.8261 1.13997 24.1948 27.2276 0.0434501 9.8862 -5.02006 -45.1768 3.55137 -3.33449 -22.8795 -25.4889 2.71321 -7.5856 43.2998 -7.90628 5.82328 9.61819 -0.917488 -1.50613 -4.17928 -8.78307 -4.96802 -12.1412 -4.62823 -0.204669 13.573 -4.04902 4.7557 1.32591 -0.486073 0.0462048 0.00053089 0.662642 
103.822 100.106 0.0424999 -7.80164 -3.54313 -85.3282 -3.00448 11.1141 5.40771 -0.386835 15.8489 30.3551 -11.0721 -21.8218 -1.29613 -1.33455e-009 8.75224e-006 -1.47026e-008 0.141518 12.1172 -0.593808 -3.13614 2.943 0.0258345 36.0051 1.82748 0.31981 37.0903 -5.11227 14.8629 3.17433 30.9549 16.2842 1.88796 9.88738 -5.07176 -45.2593 3.55594 -3.33321 -23.1608 -25.629 2.44083 -7.55859 43.545 -7.87632 5.82328 9.61819 -0.917488 -1.80995 -4.79392 -8.49009 -5.05731 -12.1352 -4.61978 -0.298299 13.613 -4.04128 4.84665 1.37131 -0.494824 0.0462048 0.00053089 0.662642 
103.802 100.11 0.242776 -7.75337 -3.6039 -85.1827 -3.12584 11.1399 5.40084 -0.486703 15.7117 30.2971 -10.764 -21.7778 -1.25243 -1.33455e-009 8.75224e-006 -1.47026e-008 0.152187 12.0389 -0.562178 -2.86211 2.98248 0.00177556 36.0769 1.83684 0.335166 40.6488 -20.1463 14.7453 8.63463 47.4703 5.63779 2.82043 9.88454 -5.43182 -45.5452 3.58237 -3.34218 -23.2743 -25.1505 2.27792 -6.99499 42.9371 -8.77941 5.82328 9.61819 -0.917488 -1.95667 -5.46854 -8.17438 -5.25133 -12.1883 -4.69899 -0.375275 13.7164 -4.02662 4.99918 1.35515 -0.506271 0.0462048 0.00053089 0.662642 
103.794 100.117 0.43861 -7.65778 -3.67691 -85.0196 -3.26224 11.1198 5.35122 -0.592557 15.5461 30.2636 -10.4137 -21.7183 -1.20224 -1.33455e-009 8.75224e-006 -1.47026e-008 0.180827 11.9298 -0.596358 -2.72324 3.01454 -0.060772 36.2352 1.84535 0.34053 41.5042 -25.3685 13.061 10.8144 49.97 -0.0166622 2.53212 9.88164 -5.74039 -45.7909 3.61066 -3.36036 -23.3738 -23.8391 2.16485 -6.07397 41.4455 -10.4011 5.82328 9.61819 -0.917488 -1.92552 -6.27275 -7.75347 -5.49353 -12.2861 -4.84314 -0.407208 13.8068 -3.96939 5.16111 1.36776 -0.51953 0.0462048 0.00053089 0.662642 
103.789 100.147 0.629147 -7.54868 -3.7299 -84.8311 -3.39158 11.1522 5.2333 -0.671294 15.2418 30.2648 -10.1412 -21.6155 -1.15851 -1.33455e-009 8.75224e-006 -1.47026e-008 0.238052 11.8159 -0.733271 -2.71432 3.00375 -0.198322 36.4198 1.84396 0.320093 41.1889 -27.6834 10.2757 10.5474 47.6931 -0.679982 1.16013 9.88107 -5.791 -45.8132 3.61766 -3.37035 -23.5945 -21.7527 2.12686 -4.94428 39.2979 -12.4453 5.82328 9.61819 -0.917488 -1.76096 -7.01182 -7.37246 -5.74135 -12.356 -5.03742 -0.390871 13.8206 -3.90862 5.31995 1.4667 -0.535993 0.0462048 0.00053089 0.662642 
